<svg width="213" height="116" viewBox="0 0 213 116" fill="none" xmlns="http://www.w3.org/2000/svg">
<path d="M35.1818 23.1818H43.6364V73.0909C43.6364 77.5455 42.8182 81.3295 41.1818 84.4432C39.5455 87.5568 37.2386 89.9205 34.2614 91.5341C31.2841 93.1477 27.7727 93.9545 23.7273 93.9545C19.9091 93.9545 16.5114 93.2614 13.5341 91.875C10.5568 90.4659 8.21591 88.4659 6.51136 85.875C4.80682 83.2841 3.95455 80.2045 3.95455 76.6364H12.2727C12.2727 78.6136 12.7614 80.3409 13.7386 81.8182C14.7386 83.2727 16.1023 84.4091 17.8295 85.2273C19.5568 86.0455 21.5227 86.4545 23.7273 86.4545C26.1591 86.4545 28.2273 85.9432 29.9318 84.9205C31.6364 83.8977 32.9318 82.3977 33.8182 80.4205C34.7273 78.4205 35.1818 75.9773 35.1818 73.0909V23.1818Z" fill="black"/>
<path d="M137.455 52.3636L130.227 54.4091C129.773 53.2045 129.102 52.0341 128.216 50.8977C127.352 49.7386 126.17 48.7841 124.67 48.0341C123.17 47.2841 121.25 46.9091 118.909 46.9091C115.705 46.9091 113.034 47.6477 110.898 49.125C108.784 50.5795 107.727 52.4318 107.727 54.6818C107.727 56.6818 108.455 58.2614 109.909 59.4205C111.364 60.5795 113.636 61.5455 116.727 62.3182L124.5 64.2273C129.182 65.3636 132.67 67.1023 134.966 69.4432C137.261 71.7614 138.409 74.75 138.409 78.4091C138.409 81.4091 137.545 84.0909 135.818 86.4545C134.114 88.8182 131.727 90.6818 128.659 92.0455C125.591 93.4091 122.023 94.0909 117.955 94.0909C112.614 94.0909 108.193 92.9318 104.693 90.6136C101.193 88.2955 98.9773 84.9091 98.0455 80.4545L105.682 78.5455C106.409 81.3636 107.784 83.4773 109.807 84.8864C111.852 86.2955 114.523 87 117.818 87C121.568 87 124.545 86.2045 126.75 84.6136C128.977 83 130.091 81.0682 130.091 78.8182C130.091 77 129.455 75.4773 128.182 74.25C126.909 73 124.955 72.0682 122.318 71.4545L113.591 69.4091C108.795 68.2727 105.273 66.5114 103.023 64.125C100.795 61.7159 99.6818 58.7045 99.6818 55.0909C99.6818 52.1364 100.511 49.5227 102.17 47.25C103.852 44.9773 106.136 43.1932 109.023 41.8977C111.932 40.6023 115.227 39.9545 118.909 39.9545C124.091 39.9545 128.159 41.0909 131.114 43.3636C134.091 45.6364 136.205 48.6364 137.455 52.3636Z" fill="black"/>
<path d="M56.9943 71.4091C55.1023 71.4091 53.4702 70.9915 52.098 70.1562C50.7344 69.3125 49.6818 68.1364 48.9403 66.6278C48.2074 65.1108 47.8409 63.3466 47.8409 61.3352C47.8409 59.3239 48.2074 57.5511 48.9403 56.017C49.6818 54.4744 50.7131 53.2727 52.0341 52.4119C53.3636 51.5426 54.9148 51.108 56.6875 51.108C57.7102 51.108 58.7202 51.2784 59.7173 51.6193C60.7145 51.9602 61.6222 52.5142 62.4403 53.2812C63.2585 54.0398 63.9105 55.0455 64.3963 56.2983C64.8821 57.5511 65.125 59.0937 65.125 60.9261V62.2045H49.9886V59.5966H62.0568C62.0568 58.4886 61.8352 57.5 61.392 56.6307C60.9574 55.7614 60.3352 55.0753 59.5256 54.5724C58.7244 54.0696 57.7784 53.8182 56.6875 53.8182C55.4858 53.8182 54.446 54.1165 53.5682 54.7131C52.6989 55.3011 52.0298 56.0682 51.5611 57.0142C51.0923 57.9602 50.858 58.9744 50.858 60.0568V61.7955C50.858 63.2784 51.1136 64.5355 51.625 65.5668C52.1449 66.5895 52.8651 67.3693 53.7855 67.9062C54.706 68.4347 55.7756 68.6989 56.9943 68.6989C57.7869 68.6989 58.5028 68.5881 59.142 68.3665C59.7898 68.1364 60.348 67.7955 60.8168 67.3438C61.2855 66.8835 61.6477 66.3125 61.9034 65.6307L64.8182 66.4489C64.5114 67.4375 63.9957 68.3068 63.2713 69.0568C62.5469 69.7983 61.652 70.3778 60.5866 70.7955C59.5213 71.2045 58.3239 71.4091 56.9943 71.4091ZM77.1293 71.4091C75.4929 71.4091 74.0483 70.9957 72.7955 70.169C71.5426 69.3338 70.5625 68.1577 69.8551 66.6406C69.1477 65.1151 68.794 63.3125 68.794 61.233C68.794 59.1705 69.1477 57.3807 69.8551 55.8636C70.5625 54.3466 71.5469 53.1747 72.8082 52.348C74.0696 51.5213 75.527 51.108 77.1804 51.108C78.4588 51.108 79.4688 51.321 80.2102 51.7472C80.9602 52.1648 81.5313 52.642 81.9233 53.179C82.3239 53.7074 82.6349 54.142 82.8565 54.483H83.1122V44.8182H86.1293V71H83.2145V67.983H82.8565C82.6349 68.3409 82.3196 68.7926 81.9105 69.3381C81.5014 69.875 80.9176 70.3565 80.1591 70.7827C79.4006 71.2003 78.3906 71.4091 77.1293 71.4091ZM77.5384 68.6989C78.7486 68.6989 79.7713 68.3835 80.6065 67.7528C81.4418 67.1136 82.0767 66.2315 82.5114 65.1065C82.946 63.973 83.1634 62.6648 83.1634 61.1818C83.1634 59.7159 82.9503 58.4332 82.5241 57.3338C82.098 56.2259 81.4673 55.3651 80.6321 54.7514C79.7969 54.1293 78.7656 53.8182 77.5384 53.8182C76.2599 53.8182 75.1946 54.1463 74.3423 54.8026C73.4986 55.4503 72.8636 56.3324 72.4375 57.4489C72.0199 58.5568 71.8111 59.8011 71.8111 61.1818C71.8111 62.5795 72.0241 63.8494 72.4503 64.9915C72.8849 66.125 73.5241 67.0284 74.3679 67.7017C75.2202 68.3665 76.277 68.6989 77.5384 68.6989ZM92.0739 71V51.3636H95.0909V71H92.0739ZM93.608 48.0909C93.0199 48.0909 92.5128 47.8906 92.0866 47.4901C91.669 47.0895 91.4602 46.608 91.4602 46.0455C91.4602 45.483 91.669 45.0014 92.0866 44.6009C92.5128 44.2003 93.0199 44 93.608 44C94.196 44 94.6989 44.2003 95.1165 44.6009C95.5426 45.0014 95.7557 45.483 95.7557 46.0455C95.7557 46.608 95.5426 47.0895 95.1165 47.4901C94.6989 47.8906 94.196 48.0909 93.608 48.0909Z" fill="black"/>
<path d="M155.301 66.3636V68.9205H145.125V66.3636H155.301ZM148.091 61.6591H151.108V80.375C151.108 81.2273 151.232 81.8665 151.479 82.2926C151.734 82.7102 152.058 82.9915 152.45 83.1364C152.851 83.2727 153.273 83.3409 153.716 83.3409C154.048 83.3409 154.321 83.3239 154.534 83.2898C154.747 83.2472 154.918 83.2131 155.045 83.1875L155.659 85.8977C155.455 85.9744 155.169 86.0511 154.803 86.1278C154.436 86.2131 153.972 86.2557 153.409 86.2557C152.557 86.2557 151.722 86.0724 150.903 85.706C150.094 85.3395 149.42 84.7812 148.884 84.0312C148.355 83.2812 148.091 82.3352 148.091 81.1932V61.6591ZM167.606 86.4091C165.833 86.4091 164.278 85.9872 162.94 85.1435C161.61 84.2997 160.57 83.1193 159.82 81.6023C159.079 80.0852 158.708 78.3125 158.708 76.2841C158.708 74.2386 159.079 72.4531 159.82 70.9276C160.57 69.402 161.61 68.2173 162.94 67.3736C164.278 66.5298 165.833 66.108 167.606 66.108C169.379 66.108 170.93 66.5298 172.259 67.3736C173.597 68.2173 174.637 69.402 175.379 70.9276C176.129 72.4531 176.504 74.2386 176.504 76.2841C176.504 78.3125 176.129 80.0852 175.379 81.6023C174.637 83.1193 173.597 84.2997 172.259 85.1435C170.93 85.9872 169.379 86.4091 167.606 86.4091ZM167.606 83.6989C168.952 83.6989 170.06 83.3537 170.93 82.6634C171.799 81.973 172.442 81.0653 172.86 79.9403C173.278 78.8153 173.487 77.5966 173.487 76.2841C173.487 74.9716 173.278 73.7486 172.86 72.6151C172.442 71.4815 171.799 70.5653 170.93 69.8665C170.06 69.1676 168.952 68.8182 167.606 68.8182C166.259 68.8182 165.151 69.1676 164.282 69.8665C163.413 70.5653 162.769 71.4815 162.352 72.6151C161.934 73.7486 161.725 74.9716 161.725 76.2841C161.725 77.5966 161.934 78.8153 162.352 79.9403C162.769 81.0653 163.413 81.973 164.282 82.6634C165.151 83.3537 166.259 83.6989 167.606 83.6989ZM181.109 86V66.3636H184.024V69.3295H184.228C184.586 68.358 185.234 67.5696 186.172 66.9645C187.109 66.3594 188.166 66.0568 189.342 66.0568C189.564 66.0568 189.841 66.0611 190.173 66.0696C190.505 66.0781 190.757 66.0909 190.927 66.108V69.1761C190.825 69.1506 190.591 69.1122 190.224 69.0611C189.866 69.0014 189.487 68.9716 189.086 68.9716C188.132 68.9716 187.279 69.1719 186.529 69.5724C185.788 69.9645 185.2 70.5099 184.765 71.2088C184.339 71.8991 184.126 72.6875 184.126 73.5739V86H181.109ZM202.139 86.4091C200.247 86.4091 198.615 85.9915 197.243 85.1562C195.879 84.3125 194.826 83.1364 194.085 81.6278C193.352 80.1108 192.985 78.3466 192.985 76.3352C192.985 74.3239 193.352 72.5511 194.085 71.017C194.826 69.4744 195.858 68.2727 197.179 67.4119C198.508 66.5426 200.059 66.108 201.832 66.108C202.855 66.108 203.865 66.2784 204.862 66.6193C205.859 66.9602 206.767 67.5142 207.585 68.2812C208.403 69.0398 209.055 70.0455 209.541 71.2983C210.027 72.5511 210.27 74.0937 210.27 75.9261V77.2045H195.133V74.5966H207.201C207.201 73.4886 206.98 72.5 206.537 71.6307C206.102 70.7614 205.48 70.0753 204.67 69.5724C203.869 69.0696 202.923 68.8182 201.832 68.8182C200.63 68.8182 199.591 69.1165 198.713 69.7131C197.843 70.3011 197.174 71.0682 196.706 72.0142C196.237 72.9602 196.002 73.9744 196.002 75.0568V76.7955C196.002 78.2784 196.258 79.5355 196.77 80.5668C197.289 81.5895 198.01 82.3693 198.93 82.9062C199.85 83.4347 200.92 83.6989 202.139 83.6989C202.931 83.6989 203.647 83.5881 204.287 83.3665C204.934 83.1364 205.493 82.7955 205.961 82.3438C206.43 81.8835 206.792 81.3125 207.048 80.6307L209.963 81.4489C209.656 82.4375 209.14 83.3068 208.416 84.0568C207.691 84.7983 206.797 85.3778 205.731 85.7955C204.666 86.2045 203.468 86.4091 202.139 86.4091Z" fill="black"/>
</svg>
